<svg xmlns="http://www.w3.org/2000/svg">
  <symbol id="search" viewBox="0 0 24 24"><circle cx="11" cy="11" r="7" fill="none" stroke="currentColor" stroke-width="2"/><path d="m20 20-4-4" fill="none" stroke="currentColor" stroke-width="2" stroke-linecap="round"/></symbol>
  <symbol id="settings" viewBox="0 0 24 24"><path d="M12 15.5a3.5 3.5 0 1 0 0-7 3.5 3.5 0 0 0 0 7Z" fill="none" stroke="currentColor" stroke-width="2"/><path d="M19.4 15a1.7 1.7 0 0 0 .34 1.88l.06.06-2.83 2.83-.06-.06a1.7 1.7 0 0 0-1.88-.34 1.7 1.7 0 0 0-1.03 1.56V21h-4v-.09A1.7 1.7 0 0 0 9 19.36a1.7 1.7 0 0 0-1.88.34l-.06.06-2.83-2.83.06-.06A1.7 1.7 0 0 0 4.63 15 1.7 1.7 0 0 0 3.07 14H3v-4h.09A1.7 1.7 0 0 0 4.64 9a1.7 1.7 0 0 0-.34-1.88l-.06-.06 2.83-2.83.06.06A1.7 1.7 0 0 0 9 4.63a1.7 1.7 0 0 0 1-1.56V3h4v.09A1.7 1.7 0 0 0 15 4.64a1.7 1.7 0 0 0 1.88-.34l.06-.06 2.83 2.83-.06.06A1.7 1.7 0 0 0 19.37 9c.26.62.87 1.03 1.56 1.03H21v4h-.09A1.7 1.7 0 0 0 19.4 15Z" fill="none" stroke="currentColor" stroke-width="1.6" stroke-linecap="round" stroke-linejoin="round"/></symbol>
  <symbol id="sparkles" viewBox="0 0 24 24"><path d="m12 3-1.1 3.1A7.4 7.4 0 0 1 6.1 11L3 12l3.1 1.1a7.4 7.4 0 0 1 4.8 4.8L12 21l1.1-3.1a7.4 7.4 0 0 1 4.8-4.8L21 12l-3.1-1.1a7.4 7.4 0 0 1-4.8-4.8L12 3Z" fill="none" stroke="currentColor" stroke-width="1.8" stroke-linejoin="round"/></symbol>
  <symbol id="copy-x" viewBox="0 0 24 24"><rect x="8" y="8" width="12" height="12" rx="2" fill="none" stroke="currentColor" stroke-width="1.8"/><path d="M16 8V6a2 2 0 0 0-2-2H6a2 2 0 0 0-2 2v8a2 2 0 0 0 2 2h2m4-4 4 4m0-4-4 4" fill="none" stroke="currentColor" stroke-width="1.8" stroke-linecap="round"/></symbol>
  <symbol id="chevron" viewBox="0 0 24 24"><path d="m9 18 6-6-6-6" fill="none" stroke="currentColor" stroke-width="2" stroke-linecap="round" stroke-linejoin="round"/></symbol>
  <symbol id="x" viewBox="0 0 24 24"><path d="m6 6 12 12M18 6 6 18" fill="none" stroke="currentColor" stroke-width="2" stroke-linecap="round"/></symbol>
  <symbol id="rotate" viewBox="0 0 24 24"><path d="M3 12a9 9 0 1 0 3-6.7L3 8" fill="none" stroke="currentColor" stroke-width="2" stroke-linecap="round" stroke-linejoin="round"/><path d="M3 3v5h5" fill="none" stroke="currentColor" stroke-width="2" stroke-linecap="round" stroke-linejoin="round"/></symbol>
</svg>
